<svg xmlns="http://www.w3.org/2000/svg" height="48" viewBox="0 96 960 960" width="48"><path d="M293 824h117V654h40V545.271q0-32.633-22.969-55.452Q404.062 467 371 467h-40q-33.062 0-55.531 22.969T253 545v109h40v170Zm58-393q24.1 0 39.55-15.45Q406 400.1 406 376q0-23.1-15.45-38.55Q375.1 322 351 322q-23.1 0-38.55 15.45Q297 352.9 297 376q0 24.1 15.45 39.55Q327.9 431 351 431Zm161 93h195l-97-156-98 156Zm98 259 97-156H512l98 156ZM189 958q-37.175 0-64.088-26.912Q98 904.175 98 867V285q0-37.588 26.912-64.794Q151.825 193 189 193h582q37.588 0 64.794 27.206Q863 247.412 863 285v582q0 37.175-27.206 64.088Q808.588 958 771 958H189Zm0-91h582V285H189v582Zm0 0V285v582Z" fill="#636161"/></svg>