<?xml version="1.0" standalone="no"?>
<!DOCTYPE svg PUBLIC "-//W3C//DTD SVG 20010904//EN"
 "http://www.w3.org/TR/2001/REC-SVG-20010904/DTD/svg10.dtd">
<svg version="1.0" xmlns="http://www.w3.org/2000/svg"
 width="96.000000pt" height="96.000000pt" viewBox="0 0 96.000000 96.000000"
 preserveAspectRatio="xMidYMid meet">

<g transform="translate(0.000000,96.000000) scale(0.100000,-0.100000)"
fill="#636161" stroke="none">
<path d="M554 869 c-3 -6 14 -32 40 -57 l46 -47 46 47 c26 25 43 51 40 57 -4
7 -39 11 -86 11 -47 0 -82 -4 -86 -11z"/>
<path d="M311 826 c-24 -24 -40 -49 -37 -55 4 -6 40 -11 86 -11 46 0 82 5 86
11 6 10 -72 99 -86 99 -3 0 -25 -20 -49 -44z"/>
<path d="M283 628 c-55 -27 -50 -114 8 -138 89 -37 151 99 63 139 -30 13 -42
13 -71 -1z"/>
<path d="M603 628 c-55 -27 -50 -114 8 -138 89 -37 151 99 63 139 -30 13 -42
13 -71 -1z"/>
<path d="M253 425 c-40 -17 -53 -42 -53 -99 0 -45 24 -86 50 -86 5 0 12 -17
16 -37 8 -50 30 -83 54 -83 24 0 46 33 54 83 4 20 11 37 16 37 6 0 19 9 30 20
23 23 28 97 9 132 -23 43 -114 60 -176 33z"/>
<path d="M573 425 c-40 -17 -53 -42 -53 -99 0 -45 24 -86 50 -86 5 0 12 -17
16 -37 8 -50 30 -83 54 -83 24 0 46 33 54 83 4 20 11 37 16 37 6 0 19 9 30 20
23 23 28 97 9 132 -23 43 -114 60 -176 33z"/>
</g>
</svg>
