<?xml version="1.0" standalone="no"?>
<!DOCTYPE svg PUBLIC "-//W3C//DTD SVG 20010904//EN"
 "http://www.w3.org/TR/2001/REC-SVG-20010904/DTD/svg10.dtd">
<svg version="1.0" xmlns="http://www.w3.org/2000/svg"
 width="96.000000pt" height="96.000000pt" viewBox="0 0 96.000000 96.000000"
 preserveAspectRatio="xMidYMid meet">

<g transform="translate(0.000000,96.000000) scale(0.100000,-0.100000)"
fill="#636161" stroke="none">
<path d="M649 951 c-82 -26 -140 -117 -122 -189 8 -32 33 -9 33 30 0 73 62
128 143 128 44 0 53 -4 103 -51 56 -54 72 -48 31 11 -39 59 -125 91 -188 71z"/>
<path d="M626 771 c-86 -87 -97 -101 -87 -119 21 -40 37 -31 141 73 102 103
104 104 85 125 -10 11 -23 20 -29 20 -6 0 -56 -44 -110 -99z"/>
<path d="M717 693 l-97 -98 -88 -5 -87 -5 -3 -30 c-1 -16 1 -35 5 -41 8 -10
257 -64 299 -64 13 0 57 38 119 100 l99 101 -69 69 c-38 39 -72 70 -75 70 -3
0 -49 -44 -103 -97z"/>
<path d="M155 434 c-11 -3 -48 -14 -83 -25 -59 -20 -73 -34 -53 -54 5 -6 22
-46 37 -89 45 -128 98 -173 195 -164 50 5 92 28 113 61 21 33 -89 121 -184
148 -58 16 -68 25 -50 44 13 12 23 11 80 -8 63 -21 170 -89 170 -108 0 -15 27
-10 34 7 23 59 -12 132 -80 164 -43 21 -139 34 -179 24z"/>
<path d="M525 365 c-16 -9 -36 -23 -42 -32 -29 -38 -2 -113 27 -78 16 19 102
45 150 45 41 0 77 -21 66 -38 -4 -7 -32 -12 -66 -12 -66 0 -105 -12 -137 -42
-29 -27 -29 -49 1 -77 61 -57 156 -33 241 62 30 34 55 67 55 73 0 21 -88 92
-126 103 -56 16 -134 13 -169 -4z"/>
<path d="M461 188 c-13 -21 -25 -38 -27 -38 -2 0 -11 14 -20 32 -14 27 -18 29
-26 15 -6 -11 -4 -27 7 -48 9 -17 20 -56 25 -86 5 -31 11 -58 14 -60 13 -14
26 14 26 57 0 27 7 67 16 89 9 22 14 48 12 58 -3 14 -9 10 -27 -19z"/>
</g>
</svg>
