<?xml version="1.0" standalone="no"?>
<!DOCTYPE svg PUBLIC "-//W3C//DTD SVG 20010904//EN"
 "http://www.w3.org/TR/2001/REC-SVG-20010904/DTD/svg10.dtd">
<svg version="1.0" xmlns="http://www.w3.org/2000/svg"
 width="64.000000pt" height="64.000000pt" viewBox="0 0 64.000000 64.000000"
 preserveAspectRatio="xMidYMid meet">

<g transform="translate(0.000000,64.000000) scale(0.100000,-0.100000)"
fill="#636161" stroke="none">
<path d="M124 525 l-49 -35 98 0 c53 0 97 1 97 3 0 1 4 17 9 35 l10 32 -58 0
c-50 0 -64 -5 -107 -35z"/>
<path d="M361 528 c5 -18 9 -34 9 -35 0 -2 44 -3 97 -3 l98 0 -49 35 c-43 30
-57 35 -107 35 l-58 0 10 -32z"/>
<path d="M70 276 l0 -196 250 0 250 0 0 190 0 190 -100 0 -100 0 0 -44 0 -43
-50 0 -50 0 0 43 0 44 -39 0 c-21 0 -66 3 -100 6 l-61 7 0 -197z m372 -17 c6
-18 -3 -79 -12 -79 -9 0 -18 61 -12 79 2 6 7 11 12 11 5 0 10 -5 12 -11z m70
0 c6 -18 -3 -79 -12 -79 -9 0 -18 61 -12 79 2 6 7 11 12 11 5 0 10 -5 12 -11z
m8 -119 c0 -5 -25 -10 -55 -10 -30 0 -55 5 -55 10 0 6 25 10 55 10 30 0 55 -4
55 -10z"/>
</g>
</svg>
