<?xml version="1.0" standalone="no"?>
<!DOCTYPE svg PUBLIC "-//W3C//DTD SVG 20010904//EN"
 "http://www.w3.org/TR/2001/REC-SVG-20010904/DTD/svg10.dtd">
<svg version="1.0" xmlns="http://www.w3.org/2000/svg"
 width="128.000000pt" height="128.000000pt" viewBox="0 0 128.000000 128.000000"
 preserveAspectRatio="xMidYMid meet">

<g transform="translate(0.000000,128.000000) scale(0.100000,-0.100000)"
fill="#636161" stroke="none">
<path d="M567 1226 c-6 -16 11 -36 30 -36 10 0 13 -58 13 -284 0 -156 3 -291
6 -300 8 -21 40 -21 48 0 3 9 6 143 6 299 0 274 1 283 20 288 12 3 20 14 20
26 0 19 -6 21 -69 21 -49 0 -70 -4 -74 -14z"/>
<path d="M125 1115 c-14 -13 -25 -28 -25 -32 0 -16 -39 -245 -42 -247 -2 -1
-16 -7 -31 -14 -37 -16 -33 -48 5 -45 l27 2 3 -219 c3 -198 5 -220 22 -239 18
-20 29 -21 205 -21 102 0 191 4 197 8 28 19 35 60 41 260 6 202 7 208 27 208
34 -1 33 33 -2 46 -29 11 -30 15 -46 117 -33 204 -29 201 -219 201 -133 0
-139 -1 -162 -25z m75 -50 c0 -20 -5 -25 -25 -25 -18 0 -25 5 -25 18 0 24 8
32 32 32 13 0 18 -7 18 -25z m134 -15 c7 -45 27 -60 79 -60 l34 0 9 -63 10
-63 -50 13 c-67 17 -191 17 -250 -1 l-48 -15 7 57 c4 31 9 60 12 65 2 4 22 7
43 7 45 0 70 26 70 72 0 26 3 28 39 28 37 0 39 -1 45 -40z m97 13 c7 -21 5
-23 -21 -23 -26 0 -30 4 -30 26 0 20 4 25 21 22 12 -2 26 -13 30 -25z m-24
-235 l46 -11 -29 -24 c-26 -20 -39 -23 -127 -23 -76 0 -106 4 -128 17 -16 10
-29 20 -29 24 0 25 189 37 267 17z m-264 -82 c13 -10 17 -28 17 -78 0 -56 -3
-68 -25 -88 l-25 -23 0 101 c0 56 3 102 8 102 4 0 15 -7 25 -14z m337 -88 l0
-101 -22 19 c-35 30 -38 35 -38 96 0 48 4 59 22 72 12 9 26 16 30 16 5 0 8
-46 8 -102z m-110 12 l0 -50 -80 0 -80 0 0 50 0 50 80 0 80 0 0 -50z m38 -119
c12 -11 22 -22 22 -25 0 -3 -64 -6 -142 -6 l-141 0 23 25 c22 23 30 25 119 25
79 -1 100 -4 119 -19z m60 -138 l-3 -58 -169 -3 c-129 -2 -171 1 -178 10 -4 7
-8 34 -8 61 l0 47 180 0 181 0 -3 -57z"/>
<path d="M825 1118 c-22 -20 -28 -39 -46 -154 -21 -128 -22 -131 -51 -142 -35
-13 -36 -47 -2 -46 20 0 21 -6 27 -208 6 -200 13 -241 41 -260 6 -4 95 -8 197
-8 176 0 187 1 205 21 17 19 19 41 22 239 l3 219 27 -2 c38 -3 42 29 5 45 -15
7 -29 13 -31 13 -1 1 -11 55 -23 121 -11 65 -25 129 -31 140 -17 36 -52 44
-188 44 -119 0 -131 -2 -155 -22z m75 -37 c0 -25 -14 -41 -36 -41 -27 0 -28 3
-14 31 11 19 50 27 50 10z m130 -23 c0 -44 25 -68 71 -68 41 0 43 -3 54 -82
l7 -47 -48 15 c-61 18 -187 18 -249 -1 -27 -8 -50 -13 -51 -12 -1 1 3 30 9 65
l10 62 38 0 c45 0 66 18 75 65 6 33 9 35 45 35 37 0 39 -2 39 -32z m88 20 c20
-20 14 -38 -13 -38 -20 0 -25 5 -25 25 0 27 18 33 38 13z m-22 -249 c24 -6 44
-14 44 -18 0 -4 -13 -14 -29 -24 -22 -13 -52 -17 -128 -17 -88 0 -101 2 -128
24 l-30 24 45 10 c62 14 172 14 226 1z m-258 -85 c18 -13 22 -25 22 -73 0 -56
-7 -74 -42 -100 -17 -13 -18 -7 -18 88 0 55 3 101 8 101 4 0 18 -7 30 -16z
m332 -86 l0 -101 -25 23 c-22 20 -25 32 -25 86 0 54 3 65 22 78 12 9 24 16 25
16 2 0 3 -46 3 -102z m-100 12 l0 -50 -80 0 -80 0 0 50 0 50 80 0 80 0 0 -50z
m40 -125 l23 -25 -143 0 -143 0 23 25 c22 23 30 25 120 25 90 0 98 -2 120 -25z
m60 -122 c0 -27 -4 -54 -8 -61 -7 -9 -49 -12 -178 -10 l-169 3 -3 58 -3 57
181 0 180 0 0 -47z"/>
<path d="M627 514 c-16 -16 -7 -44 14 -44 15 0 20 5 17 22 -3 22 -19 33 -31
22z"/>
<path d="M616 378 c-3 -13 -6 -60 -6 -105 l0 -83 -300 0 c-266 0 -301 -2 -307
-16 -10 -27 17 -34 135 -34 l112 0 0 -25 0 -24 -123 -3 c-114 -3 -122 -4 -122
-23 0 -20 7 -20 635 -20 628 0 635 0 635 20 0 19 -8 20 -122 23 l-123 3 0 24
0 25 113 0 c117 0 144 7 134 34 -6 14 -41 16 -307 16 l-300 0 0 83 c0 45 -3
92 -6 105 -8 29 -40 29 -48 0z m-126 -263 c0 -25 0 -25 -95 -25 -95 0 -95 0
-95 25 0 25 0 25 95 25 95 0 95 0 95 -25z m250 0 l0 -25 -100 0 -100 0 0 25 0
25 100 0 100 0 0 -25z m240 0 c0 -25 0 -25 -95 -25 -95 0 -95 0 -95 25 0 25 0
25 95 25 95 0 95 0 95 -25z"/>
</g>
</svg>
