<svg xmlns="http://www.w3.org/2000/svg" height="48" viewBox="0 96 960 960" width="48"><path fill="#636161" d="M71 967v-84q45-3 66.5-20.5T205 845q46 0 77.269 21.5Q313.538 888 346.5 888q33.962 0 60.516-21.5Q433.571 845 480 845q46.429 0 77.484 21.5Q588.538 888 622 888t60.731-21.5Q710 845 756 845q46 0 67 17.5t66 20.5v84q-39.927-3-70.464-22Q788 926 755.5 926t-62.357 21Q663.286 968 622 968q-42.429 0-75.714-21Q513 926 480 926t-63.786 21q-30.785 21-72.714 21t-73.714-21Q238 926 205.5 926t-63.536 19Q110.927 964 71 967Zm0-198v-80q45-3 66.5-20.5T205 651q46 0 74.776 19 28.775 19 63.21 19 33.476 0 62.03-19 28.555-19 74.984-19 46.429 0 75.984 19 29.554 19 61.516 19 33.962 0 63.231-19T756 651q46 0 67 17.5t66 20.5v80q-39.927-4-70.464-23Q788 727 755.5 727t-63.248 21q-30.749 21-69.005 21-41.247 0-75.981-21-34.734-21-68.185-21Q447 727 417 748t-70 21q-40 0-74.5-21t-67-21q-32.5 0-63.536 19Q110.927 765 71 769Zm201-227 136-136-46.74-47.192q-29.335-28.284-64.297-40.546Q262 306 202 306v-98q74.665 1 132.832 23.5Q393 254 435 297l254 253.041Q676 563 655 569t-36.576 6q-39.657 0-69.041-21Q520 533 480 533t-69.076 21q-29.076 21-68.348 21-19.01 0-39.293-9.5Q283 556 272 542Zm405.479-344q44.563 0 74.542 30.021T782 301.732q0 43.908-29.937 74.588-29.936 30.68-74.5 30.68Q633 407 602.5 376.611T572 302.348q0-43.658 30.638-74.003Q633.275 198 677.479 198Z"/></svg>